<svg xmlns="http://www.w3.org/2000/svg" width="240" height="120" viewBox="0 0 240 120">
  <defs>
    <filter id="grain" x="0" y="0" width="100%" height="100%">
      <feTurbulence type="fractalNoise" baseFrequency="1.4" numOctaves="2" seed="3"/>
      <feColorMatrix values="0 0 0 0 0
                             0 0 0 0 0
                             0 0 0 0 0
                             0 0 0 0.18 0"/>
    </filter>
    <pattern id="grainPattern" patternUnits="userSpaceOnUse" width="240" height="120">
      <rect width="240" height="120" filter="url(#grain)"/>
    </pattern>
  </defs>

  <rect width="240" height="120" fill="#5A5953"/>

  <!-- Row 1 (offset by 0) -->
  <rect x="0"   y="0"  width="78" height="38" fill="#7C7972" rx="2"/>
  <rect x="80"  y="0"  width="78" height="38" fill="#8B8780" rx="2"/>
  <rect x="160" y="0"  width="78" height="38" fill="#75726B" rx="2"/>

  <!-- Row 2 (offset by 40) -->
  <rect x="-40" y="40" width="78" height="38" fill="#9A968E" rx="2"/>
  <rect x="40"  y="40" width="78" height="38" fill="#6E6B65" rx="2"/>
  <rect x="120" y="40" width="78" height="38" fill="#83807A" rx="2"/>
  <rect x="200" y="40" width="78" height="38" fill="#79766F" rx="2"/>

  <!-- Row 3 (offset by 0) -->
  <rect x="0"   y="80" width="78" height="38" fill="#8E8A82" rx="2"/>
  <rect x="80"  y="80" width="78" height="38" fill="#73706A" rx="2"/>
  <rect x="160" y="80" width="78" height="38" fill="#86827B" rx="2"/>

  <rect width="240" height="120" fill="url(#grainPattern)"/>
</svg>
