<svg xmlns="http://www.w3.org/2000/svg" width="240" height="120" viewBox="0 0 240 120">
  <defs>
    <filter id="grain" x="0" y="0" width="100%" height="100%">
      <feTurbulence type="fractalNoise" baseFrequency="1.6" numOctaves="2" seed="5"/>
      <feColorMatrix values="0 0 0 0 0
                             0 0 0 0 0
                             0 0 0 0 0
                             0 0 0 0.14 0"/>
    </filter>
    <pattern id="grainPattern" patternUnits="userSpaceOnUse" width="240" height="120">
      <rect width="240" height="120" filter="url(#grain)"/>
    </pattern>
  </defs>

  <rect width="240" height="120" fill="#BFB8AC"/>

  <!-- Row 1 — light grays + warm beige tints -->
  <rect x="0"   y="0"  width="78" height="38" fill="#D6D1C8" rx="2"/>
  <rect x="80"  y="0"  width="78" height="38" fill="#C9C0B0" rx="2"/>
  <rect x="160" y="0"  width="78" height="38" fill="#E0D5BE" rx="2"/>

  <!-- Row 2 — staggered, more beige -->
  <rect x="-40" y="40" width="78" height="38" fill="#CFC4AE" rx="2"/>
  <rect x="40"  y="40" width="78" height="38" fill="#DBD3C3" rx="2"/>
  <rect x="120" y="40" width="78" height="38" fill="#C0BBB1" rx="2"/>
  <rect x="200" y="40" width="78" height="38" fill="#D4CBB8" rx="2"/>

  <!-- Row 3 — back to grays -->
  <rect x="0"   y="80" width="78" height="38" fill="#CDC8BF" rx="2"/>
  <rect x="80"  y="80" width="78" height="38" fill="#E2D8C5" rx="2"/>
  <rect x="160" y="80" width="78" height="38" fill="#C5BEAF" rx="2"/>

  <rect width="240" height="120" fill="url(#grainPattern)"/>
</svg>
